<?xml version='1.0' encoding='UTF-8'?>
<svg xmlns="http://www.w3.org/2000/svg" version="1.1">
<!--
Rot z: -10.0, rot y: -20.0 of: View of network
[ 0, 0, 214, 308 ]
-->
    <rect x="0.0" y="0.0" width="214.0" height="308.0" style="fill:none;stroke:black;stroke-width:1;"/>
    <circle cx="147.9827852537776" cy="282.3976720213039" r="5.0" stroke-width="0" fill="red"/>
    <circle cx="162.9707743215168" cy="41.357358590977924" r="5.0" stroke-width="0" fill="red"/>
    <circle cx="106.59943695480783" cy="205.66727254270333" r="5.0" stroke-width="0" fill="red"/>
    <circle cx="63.870464498589314" cy="208.58127795943733" r="5.0" stroke-width="0" fill="red"/>
    <circle cx="99.23410670027992" cy="93.78558185039697" r="5.0" stroke-width="0" fill="red"/>
    <circle cx="83.73722727920033" cy="177.05609872863948" r="5.0" stroke-width="0" fill="red"/>
    <circle cx="52.16418546210899" cy="114.92080745102018" r="5.0" stroke-width="0" fill="red"/>
    <circle cx="75.62623430714974" cy="105.08584151479914" r="5.0" stroke-width="0" fill="red"/>
    <circle cx="106.68726489716961" cy="203.46703834865195" r="5.0" stroke-width="0" fill="red"/>
    <circle cx="88.98706847540161" cy="105.62377721800189" r="5.0" stroke-width="0" fill="red"/>
    <circle cx="115.51538585430018" cy="148.922945294013" r="5.0" stroke-width="0" fill="red"/>
    <circle cx="150.98057890372152" cy="137.44862176121543" r="5.0" stroke-width="0" fill="red"/>
    <line x1="56.16555576605191" y1="269.9250325446188" x2="153.50408930656488" y2="288.1899516746996" style="stroke:green;stroke-width:1.0"/>
    <line x1="97.57642482557736" y1="20.0" x2="194.91495836609036" y2="38.26491913008084" style="stroke:green;stroke-width:1.0"/>
    <line x1="61.41086905952547" y1="20.0" x2="158.74940260003845" y2="38.26491913008084" style="stroke:green;stroke-width:1.0"/>
    <line x1="20.0" y1="269.9250325446188" x2="117.33853354051298" y2="288.1899516746996" style="stroke:green;stroke-width:1.0"/>
    <line x1="56.16555576605191" y1="269.9250325446188" x2="97.57642482557736" y2="20.0" style="stroke:yellow;stroke-width:1.0"/>
    <line x1="153.50408930656488" y1="288.1899516746996" x2="194.91495836609036" y2="38.26491913008084" style="stroke:yellow;stroke-width:1.0"/>
    <line x1="20.0" y1="269.9250325446188" x2="61.41086905952547" y2="20.0" style="stroke:yellow;stroke-width:1.0"/>
    <line x1="117.33853354051298" y1="288.1899516746996" x2="158.74940260003845" y2="38.26491913008084" style="stroke:yellow;stroke-width:1.0"/>
    <line x1="56.16555576605191" y1="269.9250325446188" x2="20.0" y2="269.9250325446188" style="stroke:red;stroke-width:1.0"/>
    <line x1="153.50408930656488" y1="288.1899516746996" x2="117.33853354051298" y2="288.1899516746996" style="stroke:red;stroke-width:1.0"/>
    <line x1="97.57642482557736" y1="20.0" x2="61.41086905952547" y2="20.0" style="stroke:red;stroke-width:1.0"/>
    <line x1="194.91495836609036" y1="38.26491913008084" x2="158.74940260003845" y2="38.26491913008084" style="stroke:red;stroke-width:1.0"/>
<!--
Rot z: 0.0, rot y: 90.0 of: View of network
[ 214, 0, 150, 298 ]
-->
    <rect x="214.0" y="0.0" width="150.0" height="298.0" style="fill:none;stroke:black;stroke-width:1;"/>
    <text x="239.0" y="273.0" fill="black" font-size="20px">
100.0 μm    </text>
    <circle cx="249.0" cy="263.7805290222168" r="5.0" stroke-width="0" fill="red"/>
    <circle cx="306.4736084342003" cy="20.0" r="5.0" stroke-width="0" fill="red"/>
    <circle cx="324.8989471793175" cy="191.06614685058594" r="5.0" stroke-width="0" fill="red"/>
    <circle cx="327.1281265616417" cy="201.69098663330078" r="5.0" stroke-width="0" fill="red"/>
    <circle cx="309.83242267370224" cy="83.19749450683594" r="5.0" stroke-width="0" fill="red"/>
    <circle cx="259.692149579525" cy="171.23565673828125" r="5.0" stroke-width="0" fill="red"/>
    <circle cx="344.74101108312607" cy="110.50347900390625" r="5.0" stroke-width="0" fill="red"/>
    <circle cx="294.8407081961632" cy="99.63615417480469" r="5.0" stroke-width="0" fill="red"/>
    <circle cx="306.1511215567589" cy="190.06802368164062" r="5.0" stroke-width="0" fill="red"/>
    <circle cx="312.71427768468857" cy="96.56727600097656" r="5.0" stroke-width="0" fill="red"/>
    <circle cx="273.16606563329697" cy="136.8059539794922" r="5.0" stroke-width="0" fill="red"/>
    <circle cx="301.2669739127159" cy="117.17619323730469" r="5.0" stroke-width="0" fill="red"/>
    <circle cx="234.0" cy="278.7805290222168" r="1.5" stroke-width="0" fill="green"/>
    <line x1="234.0" y1="278.7805290222168" x2="234.0" y2="178.7805290222168" style="stroke:yellow;stroke-width:3.0"/>
    <line x1="234.0" y1="278.7805290222168" x2="334.0" y2="278.7805290222168" style="stroke:red;stroke-width:3.0"/>
<!--
Rot z: 0.0, rot y: 0.0 of: View of network
[ 364, 0, 150, 298 ]
-->
    <rect x="364.0" y="0.0" width="150.0" height="298.0" style="fill:none;stroke:black;stroke-width:1;"/>
    <circle cx="494.1834771633148" cy="263.7805290222168" r="5.0" stroke-width="0" fill="red"/>
    <circle cx="488.6357171535492" cy="20.0" r="5.0" stroke-width="0" fill="red"/>
    <circle cx="464.69447112083435" cy="191.06614685058594" r="5.0" stroke-width="0" fill="red"/>
    <circle cx="421.2190988063812" cy="201.69098663330078" r="5.0" stroke-width="0" fill="red"/>
    <circle cx="432.14702010154724" cy="83.19749450683594" r="5.0" stroke-width="0" fill="red"/>
    <circle cx="412.39358592033386" cy="171.23565673828125" r="5.0" stroke-width="0" fill="red"/>
    <circle cx="399.0" cy="110.50347900390625" r="5.0" stroke-width="0" fill="red"/>
    <circle cx="403.99435019493103" cy="99.63615417480469" r="5.0" stroke-width="0" fill="red"/>
    <circle cx="457.6844651699066" cy="190.06802368164062" r="5.0" stroke-width="0" fill="red"/>
    <circle cx="424.49667143821716" cy="96.56727600097656" r="5.0" stroke-width="0" fill="red"/>
    <circle cx="445.64175963401794" cy="136.8059539794922" r="5.0" stroke-width="0" fill="red"/>
    <circle cx="490.8896691799164" cy="117.17619323730469" r="5.0" stroke-width="0" fill="red"/>
    <line x1="384.0" y1="278.7805290222168" x2="484.0" y2="278.7805290222168" style="stroke:green;stroke-width:3.0"/>
    <line x1="384.0" y1="278.7805290222168" x2="384.0" y2="178.7805290222168" style="stroke:yellow;stroke-width:3.0"/>
    <circle cx="384.0" cy="278.7805290222168" r="1.5" stroke-width="0" fill="red"/>
<!--
Rot z: 0.0, rot y: 90.0 of: Rot z: 90.0, rot y: 0.0 of: Rot z: 0.0, rot y: 90.0 of: View of network
[ 0, 308, 150, 150 ]
-->
    <rect x="0.0" y="308.0" width="150.0" height="150.0" style="fill:none;stroke:black;stroke-width:1;"/>
    <circle cx="20.0" cy="423.74101108312607" r="5.0" stroke-width="0" fill="red"/>
    <circle cx="25.54776000976561" cy="366.2674026489258" r="5.0" stroke-width="0" fill="red"/>
    <circle cx="49.489006042480455" cy="347.8420639038086" r="5.0" stroke-width="0" fill="red"/>
    <circle cx="92.9643783569336" cy="345.6128845214844" r="5.0" stroke-width="0" fill="red"/>
    <circle cx="82.03645706176758" cy="362.9085884094238" r="5.0" stroke-width="0" fill="red"/>
    <circle cx="101.78989124298094" cy="413.0488615036011" r="5.0" stroke-width="0" fill="red"/>
    <circle cx="115.18347716331482" cy="328.0" r="5.0" stroke-width="0" fill="red"/>
    <circle cx="110.18912696838377" cy="377.9003028869629" r="5.0" stroke-width="0" fill="red"/>
    <circle cx="56.499011993408196" cy="366.5898895263672" r="5.0" stroke-width="0" fill="red"/>
    <circle cx="89.68680572509764" cy="360.0267333984375" r="5.0" stroke-width="0" fill="red"/>
    <circle cx="68.54171752929688" cy="399.5749454498291" r="5.0" stroke-width="0" fill="red"/>
    <circle cx="23.293807983398423" cy="371.47403717041016" r="5.0" stroke-width="0" fill="red"/>
    <line x1="130.18347716331482" y1="438.74101108312607" x2="30.18347716331482" y2="438.74101108312607" style="stroke:green;stroke-width:3.0"/>
    <circle cx="130.18347716331482" cy="438.74101108312607" r="1.5" stroke-width="0" fill="yellow"/>
    <line x1="130.18347716331482" y1="438.74101108312607" x2="130.18347716331482" y2="338.74101108312607" style="stroke:red;stroke-width:3.0"/>
</svg>
